<?xml version="1.0" encoding="utf-8"?>
<!-- Generator: Adobe Illustrator 26.2.1, SVG Export Plug-In . SVG Version: 6.00 Build 0)  -->
<svg version="1.1" id="Capa_1" xmlns="http://www.w3.org/2000/svg" xmlns:xlink="http://www.w3.org/1999/xlink" x="0px" y="0px"
	 viewBox="0 0 647.5 136.3" style="enable-background:new 0 0 647.5 136.3;" xml:space="preserve">
<style type="text/css">
	.st0{clip-path:url(#SVGID_00000051366151247372556790000014221076432509245104_);fill:#070BD9;}
	.st1{clip-path:url(#SVGID_00000062191406082164668740000009929734836756169647_);fill:#070BD9;}
	.st2{clip-path:url(#SVGID_00000006672816345364864690000003705417477275176334_);fill:#070BD9;}
	.st3{clip-path:url(#SVGID_00000001632907715419138130000017385490674621198004_);fill:#C1D700;}
</style>
<g>
	<g>
		<defs>
			<rect id="SVGID_1_" x="1.1" width="646.4" height="136.3"/>
		</defs>
		<clipPath id="SVGID_00000063593435263861810160000009051047677374311102_">
			<use xlink:href="#SVGID_1_"  style="overflow:visible;"/>
		</clipPath>
		<path style="clip-path:url(#SVGID_00000063593435263861810160000009051047677374311102_);fill:#070BD9;" d="M126.2,89.4V73.8H96.3
			V59.7h27V45.2h-27v-14h29.8V15.7H80.2v73.7H126.2z M38.7,91c22.5,0,32.1-15.6,34.5-25.8l-15.4-4.5c-1.4,5.3-6.4,13.8-19,13.8
			c-10.8,0-20.9-8-20.9-21.8c0-15.5,10.9-22.6,20.7-22.6c12.8,0,17.4,8.6,18.5,13.7l15.2-4.9C69.9,28.3,60.3,14,38.5,14
			C18.2,14,1.1,29.6,1.1,52.6C1.1,75.7,17.9,91,38.7,91"/>
	</g>
	<g>
		<defs>
			<rect id="SVGID_00000062877357585103915700000001021627042695058856_" x="1.1" width="646.4" height="136.3"/>
		</defs>
		<clipPath id="SVGID_00000139992401736570257500000011455226561415380396_">
			<use xlink:href="#SVGID_00000062877357585103915700000001021627042695058856_"  style="overflow:visible;"/>
		</clipPath>
		<path style="clip-path:url(#SVGID_00000139992401736570257500000011455226561415380396_);fill:#070BD9;" d="M328.1,34l8.7,25.5
			h-17.6L328.1,34z M347.1,89.4h17.6l-27-73.7H319l-27.3,73.7h17l5.2-15h28L347.1,89.4z M259.6,91c22.5,0,32.1-15.6,34.5-25.8
			l-15.4-4.5c-1.4,5.3-6.4,13.8-19,13.8c-10.8,0-20.9-8-20.9-21.8c0-15.5,10.9-22.6,20.7-22.6c12.8,0,17.4,8.6,18.5,13.7l15.2-4.9
			c-2.4-10.6-12-24.9-33.8-24.9C239.1,14,222,29.6,222,52.6C222,75.7,238.7,91,259.6,91"/>
	</g>
	<g>
		<defs>
			<rect id="SVGID_00000098183627731365902250000013116400823494841253_" x="1.1" width="646.4" height="136.3"/>
		</defs>
		<clipPath id="SVGID_00000017511304757669572550000017528491143783456148_">
			<use xlink:href="#SVGID_00000098183627731365902250000013116400823494841253_"  style="overflow:visible;"/>
		</clipPath>
		<path style="clip-path:url(#SVGID_00000017511304757669572550000017528491143783456148_);fill:#070BD9;" d="M185,38.9
			c0-5.5-3.6-8.9-10.2-8.9h-9.5v17.9h9.5C181.4,47.8,185,44.1,185,38.9 M187.1,59.6l14.7,29.9H184L171,62h-5.7v27.5h-16.2V15.7h28.7
			c14.3,0,23.5,10,23.5,23.1C201.4,48.8,196,56.4,187.1,59.6 M213.8,0h-79.4v136.3h79.4L213.8,0L213.8,0z"/>
	</g>
	<g>
		<defs>
			<rect id="SVGID_00000154423615451477006300000009632879425701483689_" x="1.1" width="646.4" height="136.3"/>
		</defs>
		<clipPath id="SVGID_00000057112115742891453550000017865573649392450453_">
			<use xlink:href="#SVGID_00000154423615451477006300000009632879425701483689_"  style="overflow:visible;"/>
		</clipPath>
		<path style="clip-path:url(#SVGID_00000057112115742891453550000017865573649392450453_);fill:#C1D700;" d="M646.9,32.5
			c-1.7-8-8.3-18.3-24.9-18.3c-13.6,0-24.3,10.4-24.3,21.9c0,11,7.5,17.9,18,20.1l10.5,2.3c7.4,1.6,11,6.1,11,11.4
			c0,6.4-5,11.7-15.2,11.7c-11.1,0-16.9-7.6-17.6-15.8l-9.8,3.1c1.3,10.5,9.8,21.9,27.5,21.9c15.7,0,25.4-10.4,25.4-21.8
			c0-10.3-6.8-18-19.1-20.7l-11-2.4c-6.2-1.3-9.4-5.4-9.4-10.7c0-6.9,5.9-12.2,14.2-12.2c10.3,0,14.7,7.3,15.6,12.6L646.9,32.5z
			 M560.8,57.9v31.4H571V57.9l25.9-42.1h-11.6l-19.1,32.8l-19.1-32.8h-12.2L560.8,57.9z M530.7,89.4V15.8h-10.2v56.5l-36.7-56.5
			h-13.6v73.6h10.2v-60l39.8,60H530.7z M457.7,15.8h-10.4v73.6h10.4V15.8z M437.9,89.4v-36h-35.2v9.1h25.5
			c-0.4,7.6-6.3,19.2-22.7,19.2c-13.2,0-25.6-9.7-25.6-29.2s12.9-29,26.1-29c11.4,0,20,6.2,23.4,16.8l9.2-3.9
			c-4.4-13.2-16.7-22.2-32.7-22.2c-18.2,0-36.4,13.4-36.4,38.3s17.2,38.4,35.7,38.4c12.4,0,20.3-6.1,23.6-11.9l0.9,10.4
			C429.7,89.4,437.9,89.4,437.9,89.4z"/>
	</g>
</g>
</svg>
